<svg id="Capa_1" enable-background="new 0 0 512 512" height="512" viewBox="0 0 512 512" width="512" xmlns="http://www.w3.org/2000/svg"><g><g><g><path d="m477.105 315.628-117.775-53.276.153 3.263c.289 6.125.56 12.261.81 18.397l.085 2.083 2.077-.171c.051-.004.102-.006.152-.006.229 0 .434.045.629.141 35.018 17.042 71.818 30.861 109.373 41.07 1.802.496 4.043 1.114 6.168 1.114.439 0 .868-.027 1.268-.079 2.37-.305 4.395-1.758 4.923-3.538.492-1.669-.228-3.785-1.839-5.396-1.644-1.631-3.973-2.679-6.024-3.602z" fill="#d36c63"/><path d="m379.451 217.706c.712.111 1.454.167 2.207.167 5.253 0 11.242-2.769 12.526-8.062 1.319-5.435-2.376-11.306-11.3-17.946l-95.141-70.716c-7.168-5.326-14.579-10.834-22.926-13.294-.712-.215-1.456-.405-2.339-.599-.774-.17-1.564-.311-2.305-.412-.493-.078-1.034-.115-1.704-.115-.139 0-.278.009-.424.023-.407.013-.822.047-1.305.109-.179.022-.365.046-.483.068-.365.052-.75.132-1.145.215l-.654.148c-.583.151-1.166.324-1.787.531-5.343 1.802-10.987 5.526-15.967 8.813l-.097.064c-2.273 1.503-4.422 2.922-6.391 4.058-21.396 12.405-42.545 25.848-62.857 39.957-11.689 8.112-23.255 16.556-34.374 25.094-6.161 4.712-11.482 9.108-14.211 15.211-2.581 5.758-1.898 14.117 3.706 17.58 1.679 1.035 3.604 1.559 5.724 1.559 4.612-.001 10.232-2.459 17.183-7.515l112.895-82.186c.263-.19.572-.29.895-.29.336 0 .655.108.919.308l102.043 77.979c5.037 3.856 10.747 8.223 17.312 9.251z" fill="#d36c63"/><path d="m32.186 312.048c-6.014 2.453-8.93 5.171-8.916 8.302 0 3.147 3.189 5.559 6.271 6.073.643.107 1.318.162 2.01.162 2.72 0 5.528-.818 8.655-1.808 37.522-11.918 74.999-25.689 111.388-40.932l1.235-.517-.114-20.549z" fill="#d36c63"/><path d="m503.311 502.89c-2.29 3.6-7.47 4.08-12.24 4.08h-.66l-466.72-4.8c-6.08-.07-12.67-.74-15.48-5.24-1.16-1.84-1.45-4.1-.84-6.53.05-.19.1-.39.17-.58.95-3.1 3.25-5.98 6.1-7.6 4.58-2.61 10.15-2.96 15-2.96.95 0 1.89.02 2.81.03l413 8.29c13.25.27 25.2.59 37.37 1.66l.78.07c12.9 1.09 20.06 3.41 21.89 7.09.01 0 .01.01.01.01.85 1.74.44 3.92-1.19 6.48z" fill="#845252"/><path d="m277.138 397.38c-3.19-10.737-7.747-17.24-13.93-19.879-1.926-.824-4.056-1.241-6.333-1.241-5.39 0-11.148 2.423-15.406 6.484-4.997 4.775-8.605 11.614-11.355 21.52-6.904 24.857-5.052 51.017-3.418 74.097l.129 1.822 55.286 1.112-.229-2.33c1.538-27.095 3.129-55.112-4.744-81.585z" fill="#845252"/><path d="m453.731 324.83c-8.59-2.61-17.13-5.42-25.61-8.41-20.13-7.09-39.92-15.21-59.11-24.25-1.86-.88-3.71-1.76-5.55-2.65l-3-1.45.13 3.33c.32 8.19.6 16.39.85 24.6 1.29 41.48 1.74 83.08 1.36 124.3-.12 13.31-.33 26.57-.62 39.79 0 .1-.05.28-.07.35l-.63 2.45 1.8.04 69.74 1.4 11.49.23c1.99.04 3.97.08 5.95.13l2.02.05.02-1.31.09-5.31 2.59-152.85zm-24.35 124.21c-1.84 2.54-9.28 3.82-22.11 3.82h-.92c-10-.05-21-.95-24.52-2.01-2.06-.61-2.1-1.6-2.12-1.98l-3.67-75.58c-.22-4.33-.49-9.73 1.8-14.37 1.25-2.53 3.21-4.65 4.97-6.55l20.84-22.54c.28-.3.71-.48 1.14-.48.43.01.84.21 1.12.53l7.2 8.51 21.21 25.07c.25.29.37.65.35 1.04l-3.43 74.09c-.02.46-.03.94-.03 1.43l-.01.45c-.01 1.98-.01 4.31-.72 6.39-.26.77-.61 1.51-1.1 2.18z" fill="#efb17c"/><path d="m153.841 476.39-.01-.57-.95-181.73-.04-7.49-2.75 1.14c-33.12 13.78-67.17 26.36-101.2 37.4l-1.71.55-.02.01.01.03.39 1.74c.01.05.02.09.02.17 1.33 45.54 1.62 91.79.86 137.58-.01.72-.02 1.44-.04 2.16-.02 1.85-.06 3.71-.09 5.56v.21l.04.21c.03.16.04.29.03.44l-.2 2.77v.03h.08l46.48.93 36.46.74 18.37.36 2.25.05 2.32-.02zm-71.91-27.34c-1.78-2.46-1.8-5.7-1.82-8.6l-.01-.62c0-.42-.01-.82-.02-1.22l-3.44-74.11c-.02-.39.1-.75.36-1.05l28.39-33.56c.29-.33.7-.53 1.11-.54l.02-2v2c.46 0 .85.17 1.15.49l12.12 13.11 8.75 9.46c1.73 1.87 3.68 3.98 4.93 6.51 2.29 4.63 2.02 10.03 1.8 14.37l-3.67 75.59c-.02.37-.06 1.36-2.13 1.98-1.41.42-4.04.82-7.32 1.15-4.88.49-11.21.82-17.18.85h-.93c-12.83 0-20.27-1.28-22.11-3.81z" fill="#efb17c"/><g fill="#86cefd"><path d="m405.082 396.37 1.886.126c6.935.462 13.956 1.24 20.866 2.311l2.201.341 1.59-34.2-25.932-30.633z"/><path d="m407.166 399.544-2.114-.143-.49 50.391 2.725.008c10.552 0 17.024-.741 19.236-2.202l.371-.245.231-.378c1.009-1.643 1.032-4.07 1.055-6.417l.001-.119c0-.688.01-1.357.038-1.967l1.684-36.278-1.769-.28c-6.984-1.104-14.038-1.902-20.968-2.37z"/><path d="m380.56 360.26c-1.947 3.917-1.708 8.68-1.497 12.877l1.116 23.051 1.973-.069c3.031-.106 6.07-.16 9.033-.16 2.962 0 5.931.054 8.823.16l2.054.076.589-60.828-17.643 19.083c-1.665 1.801-3.387 3.664-4.448 5.81z"/><path d="m391.016 398.985c-2.855 0-5.771.053-8.666.157l-2.024.072 2.374 48.83 1.527.307c2.951.595 8.654 1.087 15.254 1.318l2.05.071.5-50.502-1.941-.076c-2.987-.118-6.039-.177-9.074-.177z"/><path d="m275.68 233.642-17.63-19.066.602 60.841 2.056-.079c2.895-.111 5.862-.167 8.821-.167 2.96 0 5.997.056 9.029.167l1.976.072 1.117-23.09c.2-4.197.428-8.954-1.495-12.834-1.077-2.185-2.885-4.131-4.476-5.844z"/><path d="m269.499 278.2c-2.988 0-5.975.058-8.876.171l-1.941.076.5 50.503 2.05-.072c6.584-.23 12.281-.719 15.239-1.307l1.532-.304 2.374-48.833-2.024-.072c-2.98-.108-5.958-.162-8.854-.162z"/><path d="m253.533 278.755c-7.03.485-14.081 1.282-20.955 2.37l-1.769.28 1.684 36.275c.028.622.038 1.282.038 1.98.011 2.272.023 4.846 1.056 6.527l.231.378.371.245c2.212 1.461 8.684 2.202 19.236 2.202l2.725-.008-.501-50.394z"/><path d="m253.744 275.706 1.886-.126-.611-62.057-25.932 30.645 1.578 34.189 2.201-.34c6.924-1.072 13.948-1.849 20.878-2.311z"/><path d="m126.383 354.523-17.722-19.154.591 60.825 2.053-.076c2.893-.106 5.861-.16 8.823-.16 2.963 0 6.002.054 9.033.16l1.973.069 1.114-23.047c.213-4.203.454-8.967-1.488-12.886-1.059-2.114-2.746-3.953-4.377-5.731z"/><path d="m120.3 398.985c-3.032 0-6.086.06-9.077.177l-1.941.076.5 50.502 2.05-.071c6.611-.231 12.314-.724 15.256-1.318l1.526-.308 2.373-48.829-2.024-.072c-2.896-.104-5.811-.157-8.663-.157z"/><path d="m104.146 399.544c-6.938.468-13.989 1.266-20.959 2.37l-1.768.28 1.683 36.279c.022.466.027.965.032 1.48l.006.516c.013 2.381.026 4.843 1.045 6.505l.233.381.374.245c2.221 1.459 8.692 2.2 19.233 2.2l2.725-.008-.49-50.391z"/><path d="m104.344 396.496 1.886-.126-.611-62.055-25.932 30.633 1.59 34.2 2.201-.341c6.909-1.071 13.929-1.849 20.866-2.311z"/></g><path d="m265.051 26.52v-21.49h-15.09v21.49c0 .833-.682 1.51-1.52 1.51h-22.631v15.1h22.631c.838 0 1.52.678 1.52 1.51v60.779l3.35-.956c.173-.049.345-.09.518-.131l.112-.029c.151-.043.304-.079.455-.108l.131-.029c.128-.034.263-.06.39-.08l.146-.029c.149-.035.299-.064.541-.1.137-.022.267-.044.463-.066l.566-.082.465-.044.561-.037.495-.018.518-.009c.166 0 .332.009.485.017l.439.017c.324.027.647.063.974.108.646.088 1.347.209 2.083.359l2.398.487v-60.049c0-.833.678-1.51 1.51-1.51h22.62v-15.1h-22.62c-.833 0-1.51-.677-1.51-1.51z" fill="#ffe07a"/><path d="m359.161 479.97c1.66-75.1.56-151.08-3.28-226.16-.33-6.56-.69-13.12-1.07-19.67v-1.45l-1.41-.44c-3.62-1.12-6.98-3.23-9.84-5.11-30.19-19.79-57.7-43.46-81.78-70.37l-1.33-1.49-1.49 1.33c-27.65 24.73-57.54 47.34-88.82 67.19-4.07 2.59-8.43 5.21-13.06 6.45l-1.5.39 1.27 245.84-.17 2.3 67.11 1.34-.16-2.18c-1.46-20.75-3.46-49.18 3.57-74.49 2.9-10.46 6.77-17.74 12.18-22.89 4.88-4.67 11.24-7.34 17.44-7.34 2.7 0 5.25.5 7.58 1.5 2.98 1.27 5.62 3.28 7.93 6.07 3.16 3.79 5.71 9 7.71 15.73 1.14 3.82 2.08 7.69 2.85 11.6 4.69 23.65 3.29 48.58 2.02 70.97l-.02.11v2.15l37.87.76 37.07.74-.63-2.53c-.03-.13-.04-.23-.04-.35zm-78.16-151.89c-.02.38-.07 1.38-2.13 1.99-2.47.74-8.52 1.4-15.33 1.75-3.01.15-6.18.24-9.25.25-.26.01-.53.01-.79.01h-.06c-12.82 0-20.26-1.29-22.11-3.83-1.79-2.44-1.81-5.69-1.83-8.56 0-.66 0-1.29-.03-1.87l-3.43-74.13c-.02-.36.11-.74.35-1.03l28.41-33.56c.28-.33.69-.53 1.11-.54l.03-2v2c.45 0 .82.16 1.12.49l20.84 22.53c1.74 1.88 3.7 4 4.97 6.56 2.27 4.58 2.01 9.99 1.8 14.36l-.29 6.02z" fill="#ffdac4"/><path d="m360.285 210.851-101.125-77.276-111.985 81.518c-1.118.813-3.199 2.326-5.698 3.779l-1.454.845.583 1.577c1.618 4.383 6.856 6.676 11.191 6.676.253 0 .505-.007.76-.022 5.569-.351 10.526-3.241 15.967-6.698 32.129-20.4 62.756-43.701 91.025-69.252.279-.251.645-.391 1.09-.391h.004c.422.027.799.208 1.066.515 24.444 27.8 52.539 52.19 83.508 72.494 4.307 2.814 8.551 5.347 13.12 5.425l.242.002c5.861 0 11.391-4.73 12.326-10.544l.225-1.396-1.24-.678c-3.625-1.98-6.938-4.526-9.605-6.574z" fill="#e68781"/><path d="m273.545 231.435c4.079 4.131 7.408 9 9.778 14.3.26.58.512 1.186.513 1.822.002 1.348-1.089 2.414-2.096 3.31-17.162 15.249-33.98 30.886-50.436 46.894 1.803-7.343.193-15.424.336-22.914.111-5.83 2.259-8.387 6.409-12.439 2.884-2.816 34.248-32.236 35.496-30.973z" fill="#65beef"/><path d="m122.722 349.801c4.298 5.645 8.209 11.583 11.697 17.762-6.641 7.583-13.302 15.188-20.813 21.911-11.499 10.292-25.189 18.76-33.172 31.967.445-6.207 1.143-12.448 1.077-18.675-.036-3.361-.518-6.852.615-10.095 1.66-4.751 6.067-8.341 9.459-11.836 4.724-4.869 9.487-9.701 14.286-14.496 5.568-5.564 11.185-11.076 16.851-16.538z" fill="#65beef"/><path d="m240.62 313.38c-4.074 3.014-8.618 7.097-7.832 12.103.3 1.909 1.653 3.812 3.57 4.049.724.09 1.454-.062 2.17-.204 7.44-1.475 15.07-1.992 22.641-1.534 4.608-8.448 10.357-16.272 17.043-23.193 3.482-3.604 5.238-9.77 2.786-14.648-2.306-4.588-6.823-1.334-9.878.857-10.272 7.37-20.337 15.049-30.5 22.57z" fill="#65beef"/><path d="m88.071 434.074c-1.154 1.047-2.314 2.12-3.141 3.441-2.309 3.689-1.58 8.437-.772 12.714 8.269-.625 16.538-1.25 24.808-1.875.834-.063 1.706-.138 2.41-.588.576-.368.977-.948 1.359-1.514 6.273-9.293 11.737-19.132 16.31-29.369 1.082-2.423 5.903-13.534 2.114-14.996-2.347-.906-12.506 7.865-14.569 9.322-9.959 7.032-19.489 14.673-28.519 22.865z" fill="#65beef"/><path d="m382.546 376.497c-1.313.891-2.672 1.833-3.446 3.218-.819 1.467-.868 3.225-.897 4.904-.106 6.141-.212 12.283-.317 18.425.03-1.752 8.351-7.024 9.857-8.218 3.353-2.657 6.772-5.23 10.254-7.717 7.167-5.12 14.595-9.874 22.248-14.235 2.868-1.634 8.601-3.458 9.64-6.987.836-2.837-1.461-6.819-3.505-8.698-4.904-4.507-11.716-2.173-16.695.887-9.281 5.706-18.125 12.3-27.139 18.421z" fill="#65beef"/><path d="m379.953 430.686c2.771 5.268.387 11.723 1.181 17.622.072.539.21 1.135.666 1.431.362.235.827.214 1.257.185 8.542-.581 17.083-1.162 25.625-1.743.773-.053 1.594-.122 2.212-.588.729-.549.994-1.502 1.254-2.377 2.365-7.955 7.767-14.575 12.373-21.478 3.314-4.967 7.829-11.947 7.672-18.197-.207-8.229-10.064.877-13.449 3.025-12.573 7.977-25.522 15.362-38.791 22.12z" fill="#65beef"/><path d="m106.521 329.35v-2l-.02 2c-.41.01-.82.21-1.11.54l-28.39 33.56c-.26.3-.38.66-.36 1.05l3.44 74.11c.01.4.02.8.02 1.22l.01.62c.02 2.9.04 6.14 1.82 8.6 1.84 2.53 9.28 3.81 22.11 3.81h.93c5.97-.03 12.3-.36 17.18-.85 7.54 10.22 17.13 19.08 27.42 26.62.29.22.58.43.87.64-6.41-.41-12.82-.74-19.24-1-12.15-.51-24.31-.75-36.46-.74-10.64.01-21.28.22-31.91.63-4.92.19-10.05.38-14.57-1.56-.03-.01-.05-.02-.08-.03-.04-.02-.07-.03-.11-.05l-.16-9.65c-.05-.09-.08-.2-.1-.31-3.26-22.2-.72-44.77.13-67.19.89-23.72-.12-47.46-1.14-71.17-.04-.89.1-1.71.37-2.47 0-.01.01-.03.01-.04 1.4-3.84 6.3-6.23 10.51-7.68 31.69-10.88 63.37-21.77 95.05-32.65.29 2.84.5 5.89.14 8.73-.37 2.9-1.33 5.58-3.41 7.6-12.23 11.85-22.29 25.91-29.68 41.26l-12.12-13.11c-.3-.32-.69-.49-1.15-.49z" fill="#e29d69"/><path d="m455.971 483.26c-1.16.06-2.31.12-3.47.17-6.49.33-12.98.63-19.48.9-23.28.95-46.58 1.52-69.88 1.69.05-1.03.1-2.06.14-3.09.62-14.21.25-28.42-.48-42.63-1.63-31.41-5.02-62.82-3.46-94.22.5-10.03 1.51-20.05 2.1-30.08.48-8.01.69-16.02.17-24.03l7.4.2.5.01c19.85 7.88 39.71 15.75 59.56 23.63-.32.19-.64.39-.95.61-7.62 4.95-12.25 13.05-15.01 21.97l-7.2-8.51c-.28-.32-.69-.52-1.12-.53-.43 0-.86.18-1.14.48l-20.84 22.54c-1.76 1.9-3.72 4.02-4.97 6.55-2.29 4.64-2.02 10.04-1.8 14.37l3.67 75.58c.02.38.06 1.37 2.12 1.98 3.52 1.06 14.52 1.96 24.52 2.01h.92c12.83 0 20.27-1.28 22.11-3.82.49-.67.84-1.41 1.1-2.18 1 1.66 2.03 3.3 3.1 4.92 5.96 9.05 12.9 17.41 19.01 26.34 1.17 1.69 2.29 3.4 3.38 5.14z" fill="#e29d69"/><path d="m282.891 408.12c11.38 25.5 26.09 49.59 39.87 73.99l-37.87-.76v-2.15l.02-.11c1.27-22.39 2.67-47.32-2.02-70.97z" fill="#f7c4aa"/><path d="m355.881 253.81c-.07-.03-.15-.06-.22-.09-7.49-3.29-13.56-9.26-21.07-12.47-11.44-4.88-25.12-2.6-35.67 3.97-5.62 3.5-10.45 8.09-14.54 13.3l.29-6.02c.21-4.37.47-9.78-1.8-14.36-1.27-2.56-3.23-4.68-4.97-6.56l-20.84-22.53c-.3-.33-.67-.49-1.12-.49v-2l-.03 2c-.42.01-.83.21-1.11.54l-28.41 33.56c-.24.29-.37.67-.35 1.03l3.43 74.13c.03.58.03 1.21.03 1.87.02 2.87.04 6.12 1.83 8.56 1.85 2.54 9.29 3.83 22.11 3.83h.06c.26 0 .53 0 .79-.01 3.07-.01 6.24-.1 9.25-.25.54 16.55 3.76 33.2 8.79 48.97-2.31-2.79-4.95-4.8-7.93-6.07-2.33-1-4.88-1.5-7.58-1.5-6.2 0-12.56 2.67-17.44 7.34-5.41 5.15-9.28 12.43-12.18 22.89-7.03 25.31-5.03 53.74-3.57 74.49l.16 2.18-67.11-1.34.17-2.3-1.27-245.84 1.5-.39c4.63-1.24 8.99-3.86 13.06-6.45 31.28-19.85 61.17-42.46 88.82-67.19l1.49-1.33 1.33 1.49c24.08 26.91 51.59 50.58 81.78 70.37 2.86 1.88 6.22 3.99 9.84 5.11l1.41.44v1.45c.38 6.55.74 13.11 1.07 19.67z" fill="#f7c4aa"/><path d="m377.562 208.725c-31.678-25.408-63.467-51.302-96.742-74.632-.626-.488-1.244-.985-1.873-1.469-4.371-3.37-8.682-6.981-13.548-8.34-3.114-1.714-6.378-3.403-10.018-2.672-3.678.739-6.57 3.601-9.447 5.831-4.398 3.409-8.816 6.79-13.249 10.153-.667.419-1.335.838-1.997 1.252-16.517 10.31-32.167 21.927-47.671 33.682-9.232 6.999-18.432 14.047-27.747 20.935-.479.331-.956.664-1.436.994-9.664 6.661-19.715 12.875-28.734 20.389-2.284 1.903.404 4.951 2.807 4.165 1.184 1.319 3.062 1.896 5.003.615 13.035-8.61 25.582-17.895 38.039-27.307 2.216-1.542 4.426-3.077 6.628-4.59 16.05-11.028 31.904-22.341 47.556-33.927 3.51-2.598 6.998-5.227 10.476-7.87 4.56-2.833 9.176-5.575 13.872-8.177 3.446-1.909 8.637-5.886 12.7-5.61.298.02.6.064.904.126 2.871 1.616 5.659 3.704 8.178 5.388 1.013.677 2.012 1.377 3.018 2.065.583.501 1.135.967 1.641 1.361 15.559 12.135 30.285 25.287 45.258 38.125 8.424 7.223 16.931 14.352 25.695 21.161 8.195 6.366 16.556 12.314 26.563 15.44 3.847 1.202 7.495-4.385 4.124-7.088z" fill="#bc4c46"/><path d="m149.124 275.75c-19.449 9.187-39.551 16.54-59.895 23.479-10.206 3.481-20.424 6.929-30.637 10.391-5.015 1.7-9.992 3.505-14.974 5.301-4.812 1.734-9.836 3.191-13.856 6.43-1.747 1.408-.203 4.098 1.724 4.161 5.186.17 10.242-1.885 15.139-3.412 5.363-1.672 10.718-3.354 16.05-5.124 10.505-3.488 21.017-6.953 31.51-10.475 20.1-6.748 40.253-13.868 59.222-23.425 4.909-2.473.606-9.635-4.283-7.326z" fill="#bc4c46"/><path d="m481.211 322.331c-9.901-3.859-20.477-6.361-30.558-9.776-10.127-3.43-20.178-7.084-30.143-10.959-9.924-3.859-19.761-7.939-29.499-12.246-4.892-2.164-9.739-4.42-14.601-6.651-4.44-2.038-9.023-4.893-13.965-5.18-2.766-.16-3.672 3.271-2.105 5.081 3.177 3.671 8.461 5.518 12.782 7.587 4.82 2.309 9.691 4.519 14.572 6.697 9.807 4.377 19.712 8.543 29.698 12.493 9.946 3.935 19.979 7.649 30.09 11.14 10.256 3.541 20.853 7.748 31.499 9.903 5.364 1.088 7.221-6.144 2.23-8.089z" fill="#bc4c46"/><path d="m241.083 381.485c-6.382 6.458-10.384 14.985-12.558 23.801s-2.618 17.964-2.652 27.043c-.036 9.732.387 19.46.81 29.183.257 5.898.513 11.797.77 17.695.03.681.098 1.445.621 1.883.449.376 1.09.386 1.676.378 11.448-.169 22.896-.339 34.344-.508-12.551-32.517-9.746-68.575-11.403-103.391-.036-.755-.087-1.551-.509-2.178-1.335-1.986-4.425-.477-6.128 1.203-3.683 3.634-7.019 7.62-9.95 11.884" fill="#684141"/><path d="m503.311 502.89c-2.29 3.6-7.47 4.08-12.24 4.08h-.66l-466.72-4.8c-6.08-.07-12.67-.74-15.48-5.24-1.16-1.84-1.45-4.1-.84-6.53.05-.19.1-.39.17-.58 162.6 3.46 325.39-2.32 487.82 5.86 3 .15 6.09.34 9.13.72.01 0 .01.01.01.01.85 1.74.44 3.92-1.19 6.48z" fill="#684141"/></g></g><g><path d="m509.006 494.201c-3.496-7.062-15.094-8.958-25.977-9.881l-.76-.065c-8.224-.72-16.444-1.103-24.738-1.354l2.605-154.085c3.717 1.085 7.44 2.146 11.174 3.161 2.144.583 4.713 1.282 7.467 1.282.633 0 1.275-.037 1.925-.121 4.415-.569 7.98-3.351 9.083-7.087 1.024-3.468-.166-7.439-3.105-10.366-2.27-2.259-5.047-3.514-7.496-4.622l-118.097-53.424c-.377-7.559-.775-15.111-1.207-22.651 7.237-.608 13.724-6.053 15.623-13.051 1.035.302 2.093.55 3.178.719 8.142 1.284 18.239-2.813 20.385-11.663 2.459-10.137-6.346-18.07-13.184-23.156l-94.758-70.425-.325-.241c-6.173-4.595-13.057-9.71-20.732-12.79v-56.249h20.632c1.933 0 3.5-1.567 3.5-3.5v-18.123c0-1.933-1.567-3.5-3.5-3.5h-20.632v-19.509c0-1.933-1.567-3.5-3.5-3.5h-18.123c-1.933 0-3.5 1.567-3.5 3.5v19.509h-20.644c-1.933 0-3.5 1.567-3.5 3.5v18.124c0 1.933 1.567 3.5 3.5 3.5h20.644v57.605c-3.874 2.01-7.642 4.488-11.104 6.776-2.213 1.462-4.303 2.843-6.134 3.903-21.49 12.454-42.755 25.97-63.205 40.172-11.699 8.122-23.333 16.613-34.577 25.236-5.179 3.969-12.271 9.405-15.734 17.149-3.519 7.855-2.367 18.938 5.651 23.89 2.674 1.648 5.495 2.3 8.298 2.3 2.734 0 5.445-.624 7.979-1.548 2.371 5.645 8.5 8.919 14.452 9.308l.132 25.256-120.432 49.229c-2.978 1.217-12.041 4.922-12.028 12.954.011 6.016 5.396 10.163 10.458 11.011.954.16 1.9.23 2.834.23 3.728 0 7.238-1.115 10.175-2.047.298-.094.595-.194.893-.289 1.379 48.198 1.6 97.055.652 145.259l-10.848-.218c-6.449-.132-14.475-.292-21.259 3.57-4.175 2.376-7.489 6.708-8.648 11.306-.941 3.727-.427 7.427 1.445 10.418 4.1 6.553 12.25 7.515 19.683 7.592l466.744 4.801c.249.002.498.004.749.004 6.231 0 12.909-.869 16.43-6.405 3.299-5.187 2.613-9.059 1.456-11.394zm-58.471-11.488c-1.987-.046-3.978-.09-5.978-.13l-80.522-1.617c.078-.277.134-.563.141-.864 1.394-62.634.852-125.912-1.593-188.801 29.169 14.101 59.558 25.983 90.59 35.435zm-221.853-4.463c-1.732-24.449-3.266-49.632 3.343-73.446 2.654-9.558 6.091-16.109 10.815-20.616 5.637-5.378 13.694-7.372 19.591-4.853 5.604 2.393 9.793 8.484 12.807 18.621 7.774 26.16 6.191 54.025 4.661 80.973-.007.119.01.233.015.35zm53.264-82.289c-3.643-12.258-9.127-19.802-16.766-23.064-8.527-3.642-19.449-1.141-27.173 6.226-5.678 5.417-9.722 12.982-12.728 23.809-6.857 24.706-5.309 51.346-3.626 75.177l-62.848-1.262c.015-.135.04-.267.039-.405l-1.278-244.274c4.812-1.274 9.214-3.88 13.635-6.688 31.397-19.937 61.354-42.604 89.087-67.406 24.19 27.046 51.824 50.83 82.182 70.726 3.229 2.117 6.638 4.201 10.358 5.348.001.018-.003.036-.002.054 4.703 81.48 6.167 164.161 4.352 245.746-.007.306.038.599.106.884l-70.412-1.414c.003-.031.013-.06.015-.092 1.492-26.265 3.183-56.034-4.941-83.365zm194.353-78.521c2.002.905 4.072 1.841 5.443 3.206 1.065 1.06 1.611 2.467 1.33 3.422-.299 1.011-1.702 1.925-3.265 2.127-1.935.249-4.07-.268-6.66-.974-37.452-10.184-74.138-23.96-109.035-40.949-.589-.287-1.217-.38-1.825-.328-.254-6.153-.521-12.303-.811-18.447zm-248.499-276.308v-11.123h20.644c1.933 0 3.5-1.567 3.5-3.5v-19.509h11.123v19.509c0 1.933 1.567 3.5 3.5 3.5h20.632v11.124h-20.632c-1.933 0-3.5 1.567-3.5 3.5v57.615c-.744-.152-5.326-.524-5.539-.513-.178.009-5.166.927-5.359.985-.075.022-.149.041-.225.064v-58.152c0-1.933-1.567-3.5-3.5-3.5zm-104.284 175.776c-4.539-2.803-5.184-10.056-2.937-15.073 2.534-5.667 7.66-9.898 13.603-14.454 11.157-8.557 22.701-16.982 34.311-25.042 20.295-14.094 41.397-27.507 62.722-39.865 2.009-1.163 4.183-2.6 6.484-4.121 4.91-3.245 10.476-6.923 15.607-8.654.57-.195 2.998-1.077 6.559-.906 2.327.112 4.378.953 4.379.953 8.042 2.371 15.329 7.794 22.375 13.038l95.085 70.668c8.215 6.111 11.669 11.308 10.558 15.889v.001c-1.151 4.748-7.508 7.183-12.498 6.396-6.073-.947-11.575-5.157-16.431-8.872l-102.03-77.972c-1.231-.941-2.934-.96-4.184-.048l-112.902 82.189c-9.33 6.787-16.1 8.708-20.701 5.873zm18.946 3.686c2.533-1.474 4.591-2.966 5.873-3.898l110.793-80.653 99.954 76.385c2.898 2.217 6.189 4.731 9.874 6.746-.79 4.915-5.549 8.968-10.572 8.878-4.066-.072-8.033-2.456-12.076-5.106-30.817-20.198-58.779-44.47-83.109-72.142-.619-.704-1.493-1.129-2.429-1.183-.931-.06-1.853.27-2.547.897-28.173 25.463-58.713 48.695-90.772 69.053-5.212 3.309-9.939 6.074-15.02 6.387-4.01.244-8.678-1.832-9.969-5.364zm-102.872 102.291c-3.757 1.193-6.861 2.067-9.733 1.585-2.226-.373-4.61-2.118-4.614-4.119-.004-2.205 2.579-4.378 7.677-6.462l117.823-48.161.085 16.282c-36.312 15.207-73.727 28.961-111.238 40.875zm10.696 150.107c.923-48.265.679-97.173-.727-145.402-.005-.19-.038-.372-.072-.552 34.184-11.09 68.225-23.669 101.379-37.471l.978 186.911c0 .079.019.152.024.229l-101.574-2.039.052-.711c.026-.331.003-.655-.06-.965zm451.356 28.846c-1.822 2.866-6.695 3.205-11.2 3.158l-466.744-4.801c-5.538-.057-11.512-.613-13.821-4.305-1.091-1.743-.924-3.678-.592-4.993.698-2.769 2.788-5.491 5.324-6.934 4.077-2.321 9.146-2.704 14.016-2.704 1.232 0 2.452.025 3.64.049l412.152 8.274c12.623.254 24.97.57 37.241 1.646l.778.066c14.942 1.268 19.285 3.97 20.297 6.013.521 1.051.154 2.575-1.091 4.531zm-238.576-399.591c-.744-.152-3.648-.607-5.539-.513-.178.009-5.166.927-5.359.985m10.898-.472c-.744-.152-3.646-.581-5.539-.513-2.19.079-5.166.927-5.359.985"/><path d="m279.361 230.232-20.84-22.535c-.681-.735-1.598-1.139-2.646-1.123-1.002.022-1.947.473-2.595 1.238l-28.408 33.567c-.57.675-.865 1.54-.824 2.423l3.436 74.113c.025.559.028 1.159.031 1.78.018 3.012.04 6.761 2.205 9.732 1.018 1.397 3.38 4.64 23.718 4.64.305 0 .614 0 .928-.002 10.311-.049 21.325-.966 25.076-2.088 2.816-.842 3.48-2.525 3.541-3.786l3.676-75.593c.223-4.58.499-10.279-2.011-15.346-1.389-2.806-3.46-5.044-5.287-7.02zm-.985 10.127c1.702 3.436 1.484 7.932 1.291 11.898l-1.026 21.094c-6.002-.219-12.016-.226-18.024 0l-.526-53.648 14.132 15.281c1.579 1.708 3.212 3.474 4.153 5.375zm-25.294-21.477.538 54.84c-7.056.47-14.089 1.255-21.069 2.336l-1.447-31.207zm-17.804 106.273c-.737-1.196-.751-3.479-.763-5.501-.004-.719-.009-1.414-.039-2.063l-1.6-34.5c6.894-1.089 13.841-1.879 20.812-2.354l.454 46.298c-8.632.026-16.773-.492-18.864-1.88zm25.864 1.746-.456-46.543c5.872-.227 11.75-.225 17.615-.014l-2.202 45.279c-2.923.588-8.664 1.058-14.957 1.278z"/><path d="m78.112 440.489c.018 3.012.04 6.761 2.205 9.732 1.018 1.397 3.38 4.64 23.718 4.64.305 0 .614 0 .928-.002 10.311-.049 21.325-.966 25.076-2.088 2.816-.842 3.479-2.524 3.541-3.786l3.676-75.593c.223-4.58.499-10.28-2.011-15.347-1.391-2.806-3.461-5.044-5.287-7.018l-20.84-22.535c-.681-.736-1.617-1.145-2.646-1.122-1.002.022-1.947.473-2.595 1.238l-28.408 33.566c-.57.675-.865 1.54-.824 2.423l3.437 74.113c.024.559.027 1.159.03 1.779zm7.763 5.46c-.737-1.196-.751-3.478-.763-5.501-.004-.719-.009-1.414-.039-2.063l-1.6-34.5c6.894-1.09 13.842-1.879 20.812-2.354l.454 46.298c-8.632.026-16.773-.492-18.864-1.88zm25.864 1.746-.457-46.544c5.872-.226 11.75-.225 17.615-.013l-2.202 45.279c-2.922.588-8.663 1.058-14.956 1.278zm17.234-86.542c1.702 3.436 1.484 7.932 1.291 11.899l-1.026 21.094c-6.002-.219-12.016-.227-18.024 0l-.526-53.648 14.132 15.281c1.578 1.707 3.211 3.472 4.153 5.374zm-25.294-21.476.538 54.84c-7.056.469-14.088 1.255-21.07 2.336l-1.447-31.207z"/><path d="m377.732 448.985c.062 1.263.727 2.944 3.543 3.787 3.754 1.122 14.769 2.039 25.078 2.087.313.002.62.002.925.002 20.336 0 22.7-3.243 23.717-4.639 2.166-2.972 2.189-6.72 2.206-9.732.003-.621.006-1.221.031-1.779l3.437-74.114c.041-.883-.254-1.749-.824-2.423l-28.408-33.566c-.647-.765-1.593-1.216-2.595-1.238-1.033-.023-1.966.387-2.647 1.122l-20.842 22.536c-1.826 1.976-3.896 4.215-5.286 7.019-2.509 5.066-2.232 10.766-2.01 15.346zm4.683-47.847c5.865-.212 11.743-.213 17.616.013l-.457 46.544c-6.293-.22-12.034-.689-14.958-1.278zm43.786 39.31c-.012 2.023-.025 4.305-.763 5.501-2.09 1.388-10.231 1.906-18.865 1.88l.454-46.298c6.971.475 13.918 1.265 20.812 2.354l-1.6 34.5c-.029.649-.034 1.344-.038 2.063zm1.965-43.596c-6.982-1.08-14.014-1.866-21.07-2.336l.538-54.84 21.979 25.969zm-45.826-35.699c.941-1.9 2.575-3.667 4.153-5.374l14.133-15.281-.526 53.648c-6.008-.227-12.022-.219-18.024 0l-1.025-21.094c-.195-3.967-.412-8.463 1.289-11.899z"/></g></g></svg>