<?xml version="1.0" encoding="iso-8859-1"?>
<!-- Generator: Adobe Illustrator 19.0.0, SVG Export Plug-In . SVG Version: 6.00 Build 0)  -->
<svg version="1.1" id="Capa_1" xmlns="http://www.w3.org/2000/svg" xmlns:xlink="http://www.w3.org/1999/xlink" x="0px" y="0px"
	 viewBox="0 0 512 512" style="enable-background:new 0 0 512 512;" xml:space="preserve">
<g>
	<path style="fill:#FFF3C1;" d="M256,264.579c-16.253,0.017-32.352-3.089-47.437-9.129l-37.881,196.828H256V264.579z"/>
	<path style="fill:#FFF3C1;" d="M256,452.278h85.318L303.437,255.45c-15.084,6.04-31.184,9.146-47.437,9.129V452.278L256,452.278z"
		/>
</g>
<path style="fill:#FFDA44;" d="M383.977,136.602c0-70.677-57.291-127.977-127.968-127.985
	c-70.677-0.009-127.985,57.282-127.985,127.968s57.282,127.977,127.959,127.985c16.253,0,32.352-3.089,47.445-9.12
	C352.059,236.031,383.96,188.962,383.977,136.602z M297.038,230.452c-51.805,22.66-112.167-0.956-134.836-52.76
	s0.956-112.167,52.76-134.828s112.167,0.956,134.836,52.76c5.657,12.926,8.574,26.875,8.583,40.987
	C358.322,177.273,334.262,214.079,297.038,230.452z"/>
<path style="fill:#78B9EB;" d="M256,34.221c-56.54,0-102.381,45.841-102.381,102.381S199.46,238.983,256,238.983
	s102.381-45.841,102.381-102.381S312.54,34.221,256,34.221z M275.538,142.489l12.115,37.199L256,156.737l-31.653,22.95
	l12.115-37.199l-31.653-22.95h39.076L256,82.34l12.115,37.199h39.076L275.538,142.489z"/>
<polygon style="fill:#FFDA44;" points="256,82.34 243.885,119.539 204.809,119.539 236.462,142.489 224.347,179.688 256,156.737 
	287.653,179.688 275.538,142.489 307.191,119.539 268.115,119.539 "/>
<polygon style="fill:#FF9811;" points="170.682,452.278 136.555,452.278 136.555,503.468 375.445,503.468 375.445,452.278 
	341.318,452.278 256,452.278 "/>
<g>
	<path style="fill:#231F20;" d="M256,167.317l47.889,34.724l-18.318-56.25l47.923-34.784h-59.185L256,54.791l-18.309,56.216h-59.185
		l47.923,34.741l-18.318,56.25L256,167.317z M250.079,128.07L256,109.889l5.921,18.181h18.966l-15.357,11.16l5.913,18.147L256,146.2
		l-15.417,11.177l5.913-18.147l-15.383-11.16C231.113,128.07,250.079,128.07,250.079,128.07z"/>
	<path style="fill:#231F20;" d="M392.508,136.602C392.56,61.215,331.489,0.051,256.094,0S119.543,61.019,119.492,136.414
		c-0.034,53.324,30.979,101.793,79.414,124.095l-35.27,183.237h-35.612V512h255.953v-68.254h-35.612l-35.27-183.245
		C361.615,238.395,392.679,189.926,392.508,136.602z M136.555,136.602c-0.017-65.968,53.452-119.453,119.419-119.47
		c65.968-0.017,119.453,53.452,119.47,119.419c0.017,65.968-53.452,119.453-119.419,119.47c-15.169,0-30.202-2.884-44.297-8.506
		C166.365,229.377,136.598,185.464,136.555,136.602z M215.048,266.737c10.52,3.31,21.415,5.315,32.421,5.972v171.036h-66.454
		L215.048,266.737z M366.913,460.809v34.127H145.087v-34.127L366.913,460.809L366.913,460.809z M264.532,443.746V272.71
		c11.006-0.657,21.901-2.662,32.421-5.972l34.033,177.009L264.532,443.746L264.532,443.746z"/>
	<path style="fill:#231F20;" d="M300.451,238.267c56.122-24.546,81.717-89.942,57.163-146.064S267.671,10.486,211.549,35.04
		s-81.717,89.942-57.163,146.064c11.185,25.57,31.593,45.978,57.163,57.163 M211.549,238.267c28.351,12.32,60.533,12.32,88.884,0
		 M162.151,136.602c0.026-51.83,42.07-93.824,93.901-93.798s93.824,42.07,93.798,93.901c-0.017,37.267-22.089,70.984-56.224,85.932
		l0,0c-24.008,10.383-51.242,10.383-75.25,0l0,0C184.197,207.68,162.125,173.903,162.151,136.602z"/>
</g>
<rect x="41.675" y="41.738" transform="matrix(0.7071 -0.7071 0.7071 0.7071 -24.8041 59.7936)" style="fill:#FFDA44;" width="36.2" height="36.2"/>
<path style="fill:#231F20;" d="M68.301,17.157H51.238c0,18.847-15.28,34.127-34.127,34.127v17.064
	c18.847,0,34.127,15.28,34.127,34.127h17.064c0-18.847,15.28-34.127,34.127-34.127V51.284
	C83.581,51.284,68.301,36.004,68.301,17.157z M59.769,74.209l-0.077-0.102c-3.763-5.622-8.591-10.451-14.214-14.214l-0.102-0.077
	c5.708-3.797,10.596-8.685,14.393-14.393c3.788,5.708,8.685,10.605,14.393,14.393C68.455,63.613,63.557,68.51,59.769,74.209z"/>
<rect x="434.132" y="203.825" transform="matrix(0.7071 -0.7071 0.7071 0.7071 -24.4693 384.7763)" style="fill:#FFDA44;" width="36.2" height="36.2"/>
<path style="fill:#231F20;" d="M460.762,179.261h-17.064c0,18.847-15.28,34.127-34.127,34.127v17.064
	c18.847,0,34.127,15.28,34.127,34.127h17.064c0-18.847,15.28-34.127,34.127-34.127v-17.064
	C476.043,213.388,460.762,198.108,460.762,179.261z M452.231,236.313l-0.077-0.102c-3.763-5.622-8.591-10.451-14.214-14.214
	l-0.102-0.077c5.708-3.797,10.596-8.685,14.393-14.393c3.797,5.708,8.685,10.596,14.393,14.393
	C460.916,225.717,456.019,230.614,452.231,236.313z"/>
<g>
</g>
<g>
</g>
<g>
</g>
<g>
</g>
<g>
</g>
<g>
</g>
<g>
</g>
<g>
</g>
<g>
</g>
<g>
</g>
<g>
</g>
<g>
</g>
<g>
</g>
<g>
</g>
<g>
</g>
</svg>
