<svg height="512" viewBox="0 0 512 512" width="512" xmlns="http://www.w3.org/2000/svg" xmlns:xlink="http://www.w3.org/1999/xlink"><linearGradient id="linear-gradient" gradientUnits="userSpaceOnUse" x1="302.667" x2="558.667" y1="462.667" y2="206.667"><stop offset="0" stop-color="#e0deda"/><stop offset=".137" stop-color="#e5e3e0"/><stop offset=".498" stop-color="#edebe9"/><stop offset="1" stop-color="#f0eeec"/></linearGradient><linearGradient id="linear-gradient-2" x1="260" x2="436.5" xlink:href="#linear-gradient" y1="468" y2="291.5"/><linearGradient id="linear-gradient-3" x1="8" x2="154.667" xlink:href="#linear-gradient" y1="408" y2="261.333"/><linearGradient id="linear-gradient-4" x1="111.75" x2="215.75" xlink:href="#linear-gradient" y1="431.75" y2="327.75"/><linearGradient id="linear-gradient-5" gradientUnits="userSpaceOnUse" x1="192" x2="320" y1="184" y2="56"><stop offset="0" stop-color="#aacd5d"/><stop offset=".353" stop-color="#acce60"/><stop offset=".606" stop-color="#b0d169"/><stop offset=".828" stop-color="#b9d579"/><stop offset="1" stop-color="#c2db8b"/></linearGradient><g id="_21-pray" data-name="21-pray"><g id="filled_outline" data-name="filled outline"><path d="m448 256v-64c0-48 48-48 48-48v144l-80 96v112h-80v-128z" fill="url(#linear-gradient)"/><path d="m288 496v-160l96-96s48 32 0 80l-48 48v128z" fill="url(#linear-gradient-2)"/><path d="m64 256v-64c0-48-48-48-48-48v144l80 96v112h80v-128z" fill="url(#linear-gradient-3)"/><path d="m224 496v-160l-96-96s-48 32 0 80l48 48v128z" fill="url(#linear-gradient-4)"/><path d="m320 64h-40v-48h-48v48h-40v32h40v128h48v-128h40z" fill="url(#linear-gradient-5)"/><path d="m496 132a71.1 71.1 0 0 0 -29.367 7.267c-19.754 9.877-30.633 28.605-30.633 52.733v59.029l-19.244 19.244c-3.8-25.119-25.162-39.632-26.1-40.258a12 12 0 0 0 -15.141 1.5l-96 96a12 12 0 0 0 -3.515 8.485v160a12 12 0 0 0 24 0v-155.029l84.42-84.421c3.892 4.45 8.064 10.947 8.8 18.864 1.035 11.173-4.921 23.319-17.7 36.1l-48 48a12 12 0 0 0 16.97 16.97l48-48 64-64a12 12 0 0 0 3.51-8.484v-64c0-14.935 5.481-25.061 16.757-30.956a42.534 42.534 0 0 1 7.243-2.944v125.55l-77.219 92.663a12 12 0 0 0 -2.781 7.687v112a12 12 0 0 0 24 0v-107.655l77.219-92.663a12 12 0 0 0 2.781-7.682v-144a12 12 0 0 0 -12-12z"/><path d="m136.485 231.515a12 12 0 0 0 -15.141-1.5c-.938.626-22.3 15.139-26.1 40.258l-19.244-19.244v-59.029c0-24.128-10.879-42.856-30.633-52.733a71.1 71.1 0 0 0 -29.367-7.267 12 12 0 0 0 -12 12v144a12 12 0 0 0 2.781 7.682l77.219 92.663v107.655a12 12 0 0 0 24 0v-112a12 12 0 0 0 -2.781-7.682l-77.219-92.663v-125.546a42.817 42.817 0 0 1 6.633 2.624c11.686 5.843 17.367 16.067 17.367 31.267v64a12 12 0 0 0 3.515 8.485l64 64 48 48a12 12 0 0 0 16.97-16.97l-48-48c-12.781-12.782-18.737-24.928-17.7-36.1.733-7.922 4.91-14.421 8.8-18.866l84.415 84.422v155.029a12 12 0 0 0 24 0v-160a12 12 0 0 0 -3.515-8.485z"/><path d="m192 108h28v116a12 12 0 0 0 12 12h48a12 12 0 0 0 12-12v-116h28a12 12 0 0 0 12-12v-32a12 12 0 0 0 -12-12h-28v-36a12 12 0 0 0 -12-12h-48a12 12 0 0 0 -12 12v36h-28a12 12 0 0 0 -12 12v32a12 12 0 0 0 12 12zm12-32h28a12 12 0 0 0 12-12v-36h24v36a12 12 0 0 0 12 12h28v8h-28a12 12 0 0 0 -12 12v116h-24v-116a12 12 0 0 0 -12-12h-28z"/><path d="m372 80a12 12 0 0 0 12 12h16a12 12 0 0 0 0-24h-16a12 12 0 0 0 -12 12z"/><path d="m369.006 36a11.947 11.947 0 0 0 5.994-1.608l13.856-8a12 12 0 1 0 -12-20.784l-13.856 8a12 12 0 0 0 6.006 22.392z"/><path d="m363 146.392 13.856 8a12 12 0 0 0 12-20.784l-13.856-8a12 12 0 1 0 -12 20.784z"/><path d="m112 92h16a12 12 0 0 0 0-24h-16a12 12 0 0 0 0 24z"/><path d="m123.149 26.392 13.856 8a12 12 0 1 0 12-20.784l-13.856-8a12 12 0 0 0 -12 20.784z"/><path d="m137.005 125.608-13.856 8a12 12 0 1 0 12 20.784l13.856-8a12 12 0 1 0 -12-20.784z"/></g></g></svg>